<svg xmlns="http://www.w3.org/2000/svg" xmlns:xlink="http://www.w3.org/1999/xlink" width="2000" zoomAndPan="magnify" viewBox="0 0 1500 1499.999933" height="2000" preserveAspectRatio="xMidYMid meet" version="1.2"><g id="eb9cc7cc8b"><path style=" stroke:none;fill-rule:nonzero;fill:#f87171;fill-opacity:1;" d="M 1416.34375 718.660156 C 1408.410156 754.203125 1380.730469 792.75 1346.203125 805.613281 C 1311.605469 818.402344 1253.347656 821.410156 1218.746094 835.25 C 1184.183594 849.054688 1050.820312 880.683594 1050.820312 880.683594 L 1079.804688 1499.746094 L 388.242188 1499.746094 C 388.242188 1499.746094 437.007812 1099.332031 437.007812 1082.195312 C 437.007812 1065.058594 408.023438 889.882812 408.023438 889.882812 C 408.023438 889.882812 199.882812 903.074219 138 837.242188 C 76.082031 771.339844 110.320312 693.660156 145.933594 630.441406 C 181.476562 567.21875 408.710938 383.460938 408.710938 383.460938 C 408.710938 383.460938 462.585938 344.765625 487.257812 321.542969 C 511.929688 298.320312 528.742188 287.957031 534.648438 292.414062 C 540.589844 296.871094 589.175781 344.621094 602.976562 361.722656 C 607.6875 367.589844 612.144531 375.523438 615.914062 383.785156 C 623.121094 399.582031 627.796875 416.464844 627.359375 421.683594 C 626.707031 429.582031 452.152344 602.144531 452.152344 602.144531 L 615.042969 558.742188 C 615.042969 558.742188 670.835938 714.132812 751.8125 708.152344 C 832.824219 702.25 824.273438 570.625 824.273438 570.625 L 1125.886719 625.875 C 1125.886719 625.875 1066.761719 528.523438 1056.179688 502.875 C 1045.675781 477.1875 1021.945312 436.320312 1021.945312 436.320312 C 1021.945312 436.320312 1053.101562 426.136719 1072.015625 417.589844 C 1086.433594 411.066406 1102.882812 400.742188 1115.996094 384.800781 C 1146.285156 347.917969 1154.183594 326.832031 1154.183594 326.832031 C 1154.183594 326.832031 1154.257812 326.902344 1154.4375 327.085938 C 1161.609375 333.679688 1307.945312 468.816406 1358.015625 550.734375 C 1409.390625 634.75 1424.207031 683.15625 1416.308594 718.695312 Z M 1416.34375 718.660156 "/><path style=" stroke:none;fill-rule:nonzero;fill:#84e4a8;fill-opacity:1;" d="M 949.230469 262.089844 C 949.230469 227.960938 976.875 200.351562 1010.964844 200.351562 C 1026.507812 200.351562 1040.636719 206.078125 1051.507812 215.53125 C 1036.835938 196.765625 1003.285156 189.191406 993.105469 188.832031 C 982.921875 188.503906 933.503906 222.417969 921.332031 220.132812 C 909.160156 217.816406 912.417969 205.96875 912.417969 205.96875 C 912.417969 205.96875 902.203125 209.917969 894.015625 207.597656 C 885.789062 205.316406 885.101562 194.445312 885.101562 194.445312 C 885.101562 194.445312 880.355469 195.171875 876.550781 192.816406 L 851.335938 192.054688 L 851.226562 192.054688 C 838.65625 193.179688 781.992188 193.578125 773.152344 197.089844 C 763.296875 201.039062 757.863281 221.765625 736.125 263.285156 C 714.386719 304.765625 703.515625 314.621094 703.515625 314.621094 C 703.515625 314.621094 741.558594 321.542969 787.535156 326.976562 C 820.394531 330.890625 835.503906 333.28125 839.707031 337.191406 C 872.058594 335.890625 880.390625 321.070312 880.390625 321.070312 C 880.390625 321.070312 880.863281 324.042969 896.695312 326.976562 C 897.058594 327.050781 897.421875 327.121094 897.855469 327.195312 C 901.515625 325.054688 906.441406 323.644531 911.730469 323.824219 C 926.332031 324.402344 958.179688 333.390625 997.921875 334.113281 C 1037.667969 334.875 1043.972656 314.257812 1045.53125 313.246094 C 1035.675781 319.910156 1023.792969 323.824219 1010.964844 323.824219 C 976.835938 323.824219 949.230469 296.179688 949.230469 262.125 Z M 842.675781 323.789062 C 808.546875 323.789062 780.941406 296.144531 780.941406 262.089844 C 780.941406 228.03125 808.585938 200.351562 842.675781 200.351562 C 876.769531 200.351562 904.375 227.996094 904.375 262.089844 C 904.375 296.179688 876.734375 323.789062 842.675781 323.789062 Z M 842.675781 323.789062 "/><path style=" stroke:none;fill-rule:nonzero;fill:#ffffff;fill-opacity:1;" d="M 615.007812 562.328125 C 615.007812 562.328125 614.789062 562.328125 614.644531 562.328125 C 612.652344 562.144531 611.203125 560.371094 611.382812 558.378906 L 618.304688 485.265625 L 596.421875 455.664062 C 595.226562 454.070312 595.585938 451.789062 597.179688 450.59375 C 598.773438 449.398438 601.058594 449.761719 602.253906 451.355469 L 625.804688 483.164062 L 618.628906 559.03125 C 618.449219 560.914062 616.890625 562.328125 615.042969 562.328125 Z M 615.007812 562.328125 "/><path style=" stroke:none;fill-rule:nonzero;fill:#ffffff;fill-opacity:1;" d="M 824.234375 574.175781 C 822.425781 574.175781 820.867188 572.796875 820.648438 570.949219 L 812.785156 502.292969 L 815.25 501.207031 C 815.867188 500.917969 878.074219 472.949219 885.753906 405.632812 C 887.492188 390.34375 888.363281 370.671875 888.253906 347.230469 C 888.253906 345.238281 889.847656 343.605469 891.878906 343.605469 C 893.871094 343.605469 895.5 345.238281 895.5 347.230469 C 895.574219 370.960938 894.738281 390.921875 892.929688 406.5 C 885.644531 470.15625 832.640625 500.554688 820.539062 506.714844 L 827.785156 570.191406 C 828.003906 572.183594 826.589844 573.957031 824.597656 574.210938 C 824.453125 574.210938 824.308594 574.210938 824.164062 574.210938 Z M 824.234375 574.175781 "/><path style=" stroke:none;fill-rule:nonzero;fill:#ffffff;fill-opacity:1;" d="M 756.449219 415.921875 C 755.144531 415.921875 753.875 415.195312 753.222656 413.964844 C 752.320312 412.191406 753.007812 410.015625 754.78125 409.074219 C 791.085938 390.199219 824.019531 401.03125 825.394531 401.5 C 827.277344 402.152344 828.292969 404.183594 827.675781 406.101562 C 827.023438 407.988281 824.960938 409 823.074219 408.386719 C 822.75 408.277344 791.59375 398.132812 758.117188 415.523438 C 757.570312 415.8125 757.027344 415.921875 756.449219 415.921875 Z M 756.449219 415.921875 "/><path style=" stroke:none;fill-rule:nonzero;fill:#ffffff;fill-opacity:1;" d="M 785.214844 437.007812 C 783.765625 437.007812 782.425781 436.136719 781.847656 434.726562 C 781.121094 432.878906 782.027344 430.777344 783.875 430.015625 L 791.410156 427.042969 C 793.257812 426.320312 795.359375 427.226562 796.121094 429.074219 C 796.84375 430.921875 795.941406 433.023438 794.09375 433.78125 L 786.554688 436.753906 C 786.121094 436.933594 785.652344 437.007812 785.214844 437.007812 Z M 785.214844 437.007812 "/><path style=" stroke:none;fill-rule:nonzero;fill:#ffffff;fill-opacity:1;" d="M 838.367188 363.023438 C 837.132812 363.023438 835.9375 362.410156 835.25 361.285156 C 834.199219 359.582031 834.742188 357.335938 836.480469 356.324219 C 838.582031 355.054688 839.414062 353.53125 839.34375 352.882812 C 839.269531 352.265625 838.003906 350.816406 833.871094 349.621094 C 831.953125 349.078125 830.828125 347.046875 831.371094 345.128906 C 831.917969 343.207031 833.945312 342.085938 835.867188 342.628906 C 843.980469 344.945312 846.117188 348.933594 846.515625 351.867188 C 847.023438 355.742188 844.632812 359.800781 840.214844 362.445312 C 839.632812 362.808594 838.980469 362.953125 838.328125 362.953125 Z M 838.367188 363.023438 "/><path style=" stroke:none;fill-rule:nonzero;fill:#ffffff;fill-opacity:1;" d="M 816.699219 500.84375 C 816.699219 500.84375 787.535156 518.925781 728.515625 507.582031 C 669.496094 496.28125 657.648438 484.105469 657.648438 484.105469 C 657.648438 484.105469 678.878906 564.140625 728.515625 579.933594 C 778.152344 595.730469 824.273438 580.734375 824.273438 580.734375 L 816.734375 500.84375 Z M 816.699219 500.84375 "/><path style=" stroke:none;fill-rule:nonzero;fill:#ffffff;fill-opacity:1;" d="M 522.292969 291.398438 C 522.292969 291.398438 492.65625 244.480469 501.535156 202.019531 C 510.410156 159.558594 540.046875 162.492188 540.046875 162.492188 C 540.046875 162.492188 549.9375 76.554688 627 53.835938 C 704.058594 31.121094 749.492188 33.078125 804.816406 43.945312 C 860.140625 54.816406 889.378906 0.46875 904.414062 17.28125 C 919.449219 34.089844 904.414062 78.546875 904.414062 78.546875 C 904.414062 78.546875 935.246094 68.65625 943.144531 89.414062 C 951.042969 110.175781 925.316406 144.59375 925.316406 144.59375 C 925.316406 144.59375 899.195312 153.109375 887.820312 162.527344 C 876.441406 171.949219 871.082031 177.527344 872.023438 183.613281 C 872.964844 189.699219 876.625 192.851562 876.625 192.851562 L 852.785156 188.867188 C 852.785156 188.867188 844.015625 170.425781 825.867188 162.527344 C 807.714844 154.628906 796.808594 151.1875 796.808594 151.1875 C 796.808594 151.1875 770.035156 135.824219 746.523438 140.753906 C 723.007812 145.679688 697.320312 146.695312 689.566406 156.804688 C 681.816406 166.910156 546.710938 281.90625 542.871094 285.238281 C 539.03125 288.574219 532.617188 291.398438 532.617188 291.398438 L 522.257812 291.398438 Z M 522.292969 291.398438 "/><path style=" stroke:none;fill-rule:nonzero;fill:#ffffff;fill-opacity:1;" d="M 925.316406 207.417969 C 923.652344 208.070312 922.78125 208.359375 922.78125 208.359375 C 922.78125 208.359375 921.476562 208.25 918.941406 208.070312 C 918.941406 208.070312 921.40625 207.886719 925.316406 207.417969 Z M 925.316406 207.417969 "/><path style=" stroke:none;fill-rule:nonzero;fill:#ffffff;fill-opacity:1;" d="M 327.917969 766.484375 C 326.796875 766.484375 325.671875 765.976562 324.984375 764.964844 C 323.824219 763.332031 324.1875 761.085938 325.816406 759.890625 C 380.488281 720.542969 423.964844 664.277344 448.167969 601.421875 C 448.890625 599.535156 450.992188 598.628906 452.839844 599.355469 C 454.722656 600.078125 455.628906 602.179688 454.90625 604.027344 C 430.195312 668.191406 385.8125 725.617188 330.019531 765.761719 C 329.367188 766.230469 328.644531 766.449219 327.917969 766.449219 Z M 327.917969 766.484375 "/><path style=" stroke:none;fill-rule:nonzero;fill:#ffffff;fill-opacity:1;" d="M 1056.179688 882.277344 C 1054.296875 882.277344 1052.703125 880.789062 1052.558594 878.90625 C 1049.625 833.945312 1040.855469 789.492188 1026.542969 746.738281 C 1025.894531 744.855469 1026.941406 742.789062 1028.828125 742.136719 C 1030.710938 741.523438 1032.777344 742.535156 1033.429688 744.421875 C 1047.957031 787.75 1056.832031 832.820312 1059.804688 878.398438 C 1059.949219 880.390625 1058.425781 882.132812 1056.433594 882.238281 C 1056.363281 882.238281 1056.289062 882.238281 1056.179688 882.238281 Z M 1056.179688 882.277344 "/><path style=" stroke:none;fill-rule:nonzero;fill:#ffffff;fill-opacity:1;" d="M 1166.175781 718.226562 C 1165.054688 718.226562 1163.964844 717.71875 1163.277344 716.777344 C 1143.023438 689.421875 1128.859375 657.285156 1122.300781 623.882812 C 1121.902344 621.925781 1123.207031 620.007812 1125.164062 619.644531 C 1127.121094 619.28125 1129.039062 620.550781 1129.402344 622.507812 C 1135.742188 654.859375 1149.472656 685.980469 1169.074219 712.5 C 1170.269531 714.097656 1169.945312 716.378906 1168.3125 717.574219 C 1167.660156 718.042969 1166.902344 718.296875 1166.175781 718.296875 Z M 1166.175781 718.226562 "/><path style=" stroke:none;fill-rule:nonzero;fill:#ffffff;fill-opacity:1;" d="M 1076.6875 482.511719 C 1075.203125 482.511719 1073.789062 481.570312 1073.28125 480.085938 C 1072.628906 478.199219 1073.609375 476.136719 1075.492188 475.449219 C 1095.78125 468.308594 1115.742188 459.578125 1134.765625 449.542969 C 1147.589844 442.804688 1164.039062 433.382812 1177.660156 420.523438 C 1191.210938 407.699219 1200.269531 392.914062 1203.890625 377.769531 C 1204.363281 375.816406 1206.320312 374.617188 1208.238281 375.089844 C 1210.195312 375.5625 1211.390625 377.515625 1210.921875 379.4375 C 1206.972656 395.957031 1197.1875 411.972656 1182.625 425.777344 C 1168.347656 439.253906 1151.359375 449 1138.132812 455.957031 C 1118.785156 466.136719 1098.535156 475.011719 1077.882812 482.257812 C 1077.484375 482.402344 1077.085938 482.476562 1076.6875 482.476562 Z M 1076.6875 482.511719 "/><path style=" stroke:none;fill-rule:nonzero;fill:#ffffff;fill-opacity:1;" d="M 609.210938 673.878906 C 608.265625 673.878906 607.363281 673.519531 606.636719 672.828125 L 604.644531 670.835938 C 603.230469 669.425781 603.230469 667.140625 604.644531 665.726562 C 606.058594 664.316406 608.339844 664.316406 609.753906 665.726562 L 611.746094 667.722656 C 613.160156 669.132812 613.160156 671.417969 611.746094 672.828125 C 611.019531 673.554688 610.113281 673.878906 609.171875 673.878906 Z M 609.210938 673.878906 "/><path style=" stroke:none;fill-rule:nonzero;fill:#ffffff;fill-opacity:1;" d="M 718.769531 746.195312 C 679.316406 746.195312 639.933594 726.089844 617.941406 693.082031 C 616.816406 691.414062 617.289062 689.167969 618.957031 688.046875 C 620.621094 686.921875 622.867188 687.394531 623.992188 689.0625 C 648.445312 725.726562 695.726562 745.433594 738.949219 736.992188 C 740.90625 736.59375 742.828125 737.898438 743.1875 739.855469 C 743.585938 741.8125 742.28125 743.730469 740.328125 744.09375 C 733.226562 745.472656 725.980469 746.160156 718.769531 746.160156 Z M 718.769531 746.195312 "/><path style=" stroke:none;fill-rule:nonzero;fill:#ffffff;fill-opacity:1;" d="M 640.332031 1297.511719 C 573.125 1297.511719 505.917969 1292.546875 439.179688 1282.65625 C 437.1875 1282.367188 435.847656 1280.519531 436.136719 1278.527344 C 436.425781 1276.53125 438.277344 1275.191406 440.269531 1275.480469 C 571.964844 1295.046875 705.507812 1295.191406 837.242188 1275.953125 C 839.199219 1275.664062 841.046875 1277.039062 841.335938 1278.996094 C 841.625 1280.988281 840.25 1282.800781 838.257812 1283.089844 C 772.570312 1292.691406 706.453125 1297.472656 640.296875 1297.472656 Z M 640.332031 1297.511719 "/><path style=" stroke:none;fill-rule:nonzero;fill:#ffffff;fill-opacity:1;" d="M 687.648438 1342.835938 C 665.367188 1342.835938 643.011719 1341.53125 620.949219 1338.886719 C 618.957031 1338.632812 617.542969 1336.855469 617.757812 1334.863281 C 617.976562 1332.871094 619.789062 1331.457031 621.78125 1331.675781 C 648.628906 1334.863281 675.910156 1336.09375 702.9375 1335.371094 C 705.039062 1335.296875 706.597656 1336.890625 706.667969 1338.886719 C 706.742188 1340.878906 705.148438 1342.542969 703.152344 1342.617188 C 698.007812 1342.761719 692.828125 1342.835938 687.648438 1342.835938 Z M 687.648438 1342.835938 "/><path style=" stroke:none;fill-rule:nonzero;fill:#ffffff;fill-opacity:1;" d="M 718.878906 1138.53125 C 717.464844 1138.53125 716.125 1137.699219 715.546875 1136.320312 C 714.785156 1134.472656 715.652344 1132.335938 717.464844 1131.574219 C 896.007812 1056.542969 1025.566406 834.996094 1026.835938 832.785156 C 1027.847656 831.046875 1030.058594 830.46875 1031.796875 831.445312 C 1033.539062 832.460938 1034.117188 834.667969 1033.136719 836.410156 C 1031.835938 838.65625 901.117188 1062.269531 720.292969 1138.242188 C 719.820312 1138.421875 719.347656 1138.53125 718.878906 1138.53125 Z M 718.878906 1138.53125 "/><path style=" stroke:none;fill-rule:nonzero;fill:#ffffff;fill-opacity:1;" d="M 1002.054688 1008.105469 C 1001.800781 1008.105469 1001.546875 1008.105469 1001.257812 1008.03125 C 999.300781 1007.597656 998.066406 1005.675781 998.503906 1003.71875 L 1026.398438 877.890625 C 1026.835938 875.9375 1028.792969 874.703125 1030.710938 875.140625 C 1032.667969 875.574219 1033.898438 877.492188 1033.464844 879.449219 L 1005.566406 1005.277344 C 1005.207031 1006.980469 1003.683594 1008.105469 1002.015625 1008.105469 Z M 1002.054688 1008.105469 "/><path style=" stroke:none;fill-rule:nonzero;fill:#ffffff;fill-opacity:1;" d="M 665.945312 389.546875 C 638.917969 389.546875 615.875 387.371094 615.511719 387.335938 L 613.414062 387.117188 L 612.542969 385.199219 C 608.558594 376.464844 604.246094 369.113281 600.078125 363.894531 C 586.457031 347.011719 537.761719 299.261719 532.402344 295.238281 L 528.777344 292.558594 L 532.183594 289.625 C 532.910156 289.007812 604.753906 226.980469 644.789062 191.332031 C 654.824219 182.417969 662.03125 175.714844 667.828125 170.316406 C 685.21875 154.160156 687.902344 151.660156 705.472656 146.621094 C 726.234375 140.609375 763.476562 131.371094 779.746094 136.804688 C 791.808594 140.824219 797.679688 146.550781 799.890625 149.230469 C 804.816406 150.101562 820.757812 153.179688 831.300781 159.304688 C 842.75 166.003906 856.082031 185.136719 857.203125 190.207031 C 857.53125 191.621094 857.203125 192.671875 856.804688 193.359375 C 855.753906 195.28125 853.546875 195.460938 851.625 195.605469 L 851.226562 195.605469 C 847.460938 195.96875 838.835938 196.257812 828.910156 196.585938 C 809.417969 197.234375 779.925781 198.214844 774.492188 200.386719 C 769.417969 202.417969 764.78125 212.308594 757.101562 228.71875 C 752.574219 238.355469 746.992188 250.347656 739.347656 264.914062 C 725.292969 291.761719 715.652344 305.5625 710.472656 312.121094 C 723.152344 314.296875 753.441406 319.257812 787.933594 323.316406 C 823.65625 327.554688 837.242188 329.910156 842.132812 334.476562 C 843.472656 335.742188 846.261719 339.257812 842.929688 344.65625 C 838.328125 351.976562 822.75 352.445312 801.230469 352.230469 C 797.0625 352.230469 793.148438 352.15625 790.070312 352.265625 C 785.324219 352.445312 777.316406 357.191406 768.078125 362.734375 C 752.863281 371.828125 732.03125 384.257812 707.429688 387.300781 C 694.167969 388.964844 679.53125 389.507812 665.875 389.507812 Z M 618.265625 380.308594 C 628.230469 381.140625 672.285156 384.4375 706.558594 380.125 C 729.675781 377.265625 748.914062 365.777344 764.382812 356.539062 C 774.925781 350.273438 783.222656 345.308594 789.851562 345.054688 C 793.078125 344.945312 797.0625 344.984375 801.339844 345.019531 C 811.953125 345.089844 834.054688 345.308594 836.84375 340.851562 C 837.316406 340.089844 837.351562 339.765625 837.351562 339.765625 C 833.511719 336.324219 812.351562 333.570312 787.136719 330.5625 C 741.59375 325.199219 703.300781 318.246094 702.902344 318.171875 L 695.691406 316.867188 L 701.125 311.941406 C 701.125 311.941406 711.996094 301.617188 732.972656 261.582031 C 740.507812 247.160156 746.085938 235.277344 750.578125 225.675781 C 759.601562 206.4375 764.09375 196.800781 771.847656 193.6875 C 778.007812 191.257812 800.25 190.316406 828.726562 189.375 C 836.878906 189.121094 844.089844 188.867188 848.546875 188.578125 C 844.851562 182.417969 835.792969 170.316406 827.714844 165.570312 C 816.589844 159.121094 797.570312 156.1875 797.390625 156.152344 L 795.6875 155.898438 L 794.816406 154.449219 C 794.816406 154.449219 790.613281 148.035156 777.535156 143.6875 C 766.992188 140.171875 741.484375 143.761719 707.574219 153.578125 C 691.667969 158.179688 689.894531 159.808594 672.867188 175.644531 C 667.03125 181.042969 659.785156 187.78125 649.714844 196.765625 C 614.464844 228.140625 554.609375 279.914062 540.226562 292.375 C 553.269531 304.1875 593.703125 344.402344 605.839844 359.402344 C 610.078125 364.691406 614.390625 371.867188 618.339844 380.308594 Z M 618.265625 380.308594 "/><path style=" stroke:none;fill-rule:nonzero;fill:#ffffff;fill-opacity:1;" d="M 842.675781 200.351562 C 808.546875 200.351562 780.941406 227.960938 780.941406 262.089844 C 780.941406 296.21875 808.546875 323.824219 842.675781 323.824219 C 876.804688 323.824219 904.414062 296.179688 904.414062 262.089844 C 904.414062 227.996094 876.769531 200.351562 842.675781 200.351562 Z M 872.023438 262.089844 C 861.335938 262.089844 852.710938 253.429688 852.710938 242.777344 C 852.710938 232.125 861.335938 223.464844 872.023438 223.464844 C 882.710938 223.464844 891.332031 232.089844 891.332031 242.777344 C 891.332031 253.464844 882.675781 262.089844 872.023438 262.089844 Z M 872.023438 262.089844 "/><path style=" stroke:none;fill-rule:nonzero;fill:#ffffff;fill-opacity:1;" d="M 1051.617188 215.640625 C 1051.617188 215.640625 1051.542969 215.570312 1051.542969 215.53125 C 1040.675781 206.078125 1026.546875 200.351562 1011.003906 200.351562 C 976.875 200.351562 949.230469 227.960938 949.230469 262.089844 C 949.230469 296.21875 976.875 323.824219 1011.003906 323.824219 C 1023.792969 323.824219 1035.675781 319.910156 1045.53125 313.246094 L 1045.601562 313.246094 C 1061.941406 302.121094 1072.703125 283.390625 1072.703125 262.089844 C 1072.703125 243.574219 1064.550781 226.945312 1051.617188 215.640625 Z M 1032.414062 258.792969 C 1021.761719 258.792969 1013.105469 250.132812 1013.105469 239.480469 C 1013.105469 228.828125 1021.761719 220.167969 1032.414062 220.167969 C 1043.066406 220.167969 1051.726562 228.828125 1051.726562 239.480469 C 1051.726562 250.132812 1043.066406 258.792969 1032.414062 258.792969 Z M 1032.414062 258.792969 "/><path style=" stroke:none;fill-rule:nonzero;fill:#ffffff;fill-opacity:1;" d="M 1069.839844 422.480469 L 1068.570312 418.675781 C 1068.316406 417.878906 1068.101562 417.226562 1067.992188 416.753906 C 1064.222656 411.898438 1036.835938 377.515625 1014.769531 374.546875 C 988.613281 370.960938 974.917969 366.175781 960.097656 359.148438 C 952.09375 355.34375 933.6875 351.613281 918.90625 348.640625 C 906.730469 346.179688 897.09375 344.222656 892.964844 342.410156 C 888.617188 340.453125 887.820312 337.265625 887.746094 335.527344 C 887.53125 331.46875 890.644531 327.195312 896.042969 324.078125 C 900.679688 321.398438 906.332031 320.054688 911.875 320.238281 C 917.382812 320.453125 924.882812 321.757812 934.375 323.390625 C 950.605469 326.214844 972.816406 330.054688 997.996094 330.527344 C 1030.3125 331.179688 1038.71875 317.304688 1041.472656 312.773438 C 1042.015625 311.867188 1042.449219 311.144531 1043.101562 310.601562 L 1043.535156 310.273438 C 1059.515625 299.441406 1069.078125 281.433594 1069.078125 262.160156 C 1069.078125 245.386719 1061.832031 229.445312 1049.226562 218.429688 L 1047.992188 217.34375 L 1047.992188 216.945312 C 1034.226562 200.425781 1003.683594 192.886719 993.03125 192.527344 C 993.03125 192.527344 992.996094 192.527344 992.960938 192.527344 C 989.265625 192.527344 975.570312 199.953125 964.519531 205.894531 C 942.890625 217.597656 928.144531 225.167969 920.714844 223.757812 C 916.042969 222.851562 912.636719 220.714844 910.570312 217.378906 C 909.230469 215.242188 908.6875 212.996094 908.542969 210.96875 C 904.414062 211.910156 898.472656 212.671875 893.109375 211.148438 C 885.828125 209.121094 883.144531 202.417969 882.132812 198.214844 C 879.992188 198.070312 877.238281 197.527344 874.742188 195.96875 C 871.988281 194.300781 868.582031 190.789062 868.4375 183.722656 C 868 167.492188 929.554688 136.515625 942.851562 134.160156 C 954.808594 132.058594 964.445312 135.175781 967.996094 136.625 C 971.835938 135.355469 982.5625 132.421875 992.597656 135.390625 C 1002.269531 138.253906 1009.734375 148.324219 1012.742188 153 C 1017.125 152.203125 1026.253906 151.660156 1041.398438 155.644531 C 1062.339844 161.113281 1072.121094 181.875 1084.476562 208.140625 L 1087.195312 213.902344 C 1100.273438 241.507812 1156.648438 324.042969 1157.226562 324.875 L 1158.277344 326.433594 L 1157.625 328.207031 C 1157.300781 329.078125 1149.183594 350.273438 1118.859375 387.191406 C 1107.339844 401.210938 1092.085938 412.550781 1073.570312 420.957031 L 1069.914062 422.625 Z M 910.753906 327.410156 C 906.804688 327.410156 902.890625 328.425781 899.667969 330.308594 C 895.863281 332.519531 894.921875 334.695312 894.992188 335.128906 C 894.992188 335.199219 895.28125 335.453125 895.933594 335.742188 C 899.339844 337.265625 909.558594 339.332031 920.355469 341.503906 C 936.296875 344.730469 954.410156 348.386719 963.214844 352.554688 C 977.378906 359.292969 990.53125 363.859375 1015.75 367.335938 C 1041.398438 370.816406 1070.710938 408.347656 1073.96875 412.589844 C 1089.910156 404.835938 1103.097656 394.691406 1113.207031 382.410156 C 1137.917969 352.335938 1147.554688 332.808594 1150.089844 327.15625 C 1141.828125 315.019531 1093.0625 243.066406 1080.601562 216.835938 L 1077.882812 211.074219 C 1066.324219 186.511719 1057.160156 167.128906 1039.515625 162.492188 C 1020.566406 157.492188 1012.378906 160.355469 1012.269531 160.390625 L 1009.371094 161.441406 L 1007.8125 158.757812 C 1007.8125 158.757812 1000.097656 144.992188 990.496094 142.167969 C 980.675781 139.269531 969.230469 143.6875 969.121094 143.722656 L 967.632812 144.304688 L 966.183594 143.578125 C 966.183594 143.578125 956.441406 138.941406 944.050781 141.117188 C 929.519531 143.722656 875.355469 174.15625 875.609375 183.359375 C 875.683594 186.441406 876.625 188.503906 878.472656 189.589844 C 881.042969 191.1875 884.558594 190.75 884.59375 190.75 L 888.507812 190.136719 L 888.761719 194.121094 C 888.761719 194.121094 889.414062 202.453125 895.03125 204.011719 C 900.828125 205.640625 908.652344 203.46875 911.1875 202.488281 L 917.925781 199.882812 L 916.007812 206.835938 C 916.007812 206.835938 915.027344 210.675781 916.765625 213.394531 C 917.746094 214.953125 919.484375 215.96875 922.09375 216.472656 C 927.601562 217.523438 946.945312 207.019531 961.113281 199.375 C 977.632812 190.425781 988.105469 185.027344 993.320312 185.136719 C 1003.648438 185.496094 1038.609375 193.070312 1054.371094 213.140625 C 1068.28125 225.386719 1076.363281 243.25 1076.363281 262.050781 C 1076.363281 283.574219 1065.78125 303.644531 1048.066406 315.890625 C 1047.957031 316.035156 1047.847656 316.214844 1047.738281 316.433594 C 1038.9375 331.035156 1022.160156 338.171875 997.921875 337.699219 C 972.199219 337.230469 949.664062 333.316406 933.179688 330.453125 C 923.941406 328.859375 916.660156 327.59375 911.621094 327.375 C 911.332031 327.375 911.078125 327.375 910.789062 327.375 Z M 1047.628906 316.179688 L 1047.484375 316.289062 C 1047.484375 316.289062 1047.59375 316.214844 1047.628906 316.179688 Z M 1047.628906 316.179688 "/><path style=" stroke:none;fill-rule:nonzero;fill:#ffffff;fill-opacity:1;" d="M 1039.804688 382.953125 C 1039.804688 382.953125 988.140625 439.871094 1021.945312 436.28125 C 1055.746094 432.695312 1071.324219 415.160156 1071.324219 415.160156 C 1071.324219 415.160156 1054.007812 390.054688 1039.804688 382.988281 Z M 1039.804688 382.953125 "/><path style=" stroke:none;fill-rule:nonzero;fill:#ffffff;fill-opacity:1;" d="M 1077.703125 1458.445312 L 393.710938 1458.445312 C 391.71875 1458.445312 390.089844 1456.8125 390.089844 1454.820312 C 390.089844 1452.828125 391.71875 1451.199219 393.710938 1451.199219 L 1077.703125 1451.199219 C 1079.695312 1451.199219 1081.324219 1452.828125 1081.324219 1454.820312 C 1081.324219 1456.8125 1079.695312 1458.445312 1077.703125 1458.445312 Z M 1077.703125 1458.445312 "/><path style=" stroke:none;fill-rule:nonzero;fill:#ffffff;fill-opacity:1;" d="M 703.554688 201.003906 C 702.609375 201.003906 701.632812 200.640625 700.90625 199.882812 C 699.53125 198.433594 699.605469 196.148438 701.054688 194.773438 C 703.082031 192.851562 751.160156 147.601562 798.003906 149.015625 C 799.996094 149.085938 801.589844 150.753906 801.519531 152.746094 C 801.445312 154.738281 799.816406 156.332031 797.789062 156.261719 C 754.058594 155.027344 706.488281 199.589844 706.015625 200.0625 C 705.328125 200.714844 704.421875 201.039062 703.515625 201.039062 Z M 703.554688 201.003906 "/><path style=" stroke:none;fill-rule:nonzero;fill:#ffffff;fill-opacity:1;" d="M 888.109375 194.085938 C 887.277344 194.085938 886.441406 193.792969 885.753906 193.214844 C 884.234375 191.910156 884.050781 189.628906 885.355469 188.105469 C 912.019531 157.128906 964.335938 137.820312 966.546875 137.023438 C 968.433594 136.332031 970.496094 137.3125 971.183594 139.195312 C 971.875 141.078125 970.894531 143.144531 969.011719 143.832031 C 968.503906 144.015625 916.222656 163.324219 890.828125 192.851562 C 890.101562 193.6875 889.085938 194.121094 888.074219 194.121094 Z M 888.109375 194.085938 "/><path style=" stroke:none;fill-rule:nonzero;fill:#ffffff;fill-opacity:1;" d="M 913.796875 206.945312 C 913.109375 206.945312 912.382812 206.765625 911.769531 206.328125 C 910.101562 205.207031 909.667969 202.960938 910.789062 201.292969 C 928.144531 175.425781 1006.726562 154.410156 1010.058594 153.542969 C 1011.980469 153.035156 1013.972656 154.195312 1014.480469 156.113281 C 1014.988281 158.035156 1013.828125 160.027344 1011.90625 160.535156 C 1011.109375 160.753906 932.636719 181.695312 916.804688 205.316406 C 916.117188 206.367188 914.957031 206.910156 913.796875 206.910156 Z M 913.796875 206.945312 "/><path style=" stroke:none;fill-rule:nonzero;fill:#ffffff;fill-opacity:1;" d="M 408.023438 893.507812 C 406.285156 893.507812 404.761719 892.277344 404.472656 890.5 C 404.148438 888.542969 405.449219 886.660156 407.445312 886.335938 C 484.941406 873.144531 470.917969 747.464844 470.773438 746.195312 C 470.554688 744.203125 471.96875 742.390625 473.960938 742.175781 C 475.953125 741.921875 477.765625 743.371094 477.984375 745.328125 C 478.128906 746.667969 492.945312 879.125 408.675781 893.472656 C 408.457031 893.472656 408.277344 893.507812 408.058594 893.507812 Z M 408.023438 893.507812 "/><path style=" stroke:none;fill-rule:nonzero;fill:#ffffff;fill-opacity:1;" d="M 280.710938 493.492188 L 138.652344 493.492188 L 133.652344 423.710938 L 352.917969 77.277344 L 463.203125 77.277344 L 463.203125 344.984375 C 463.203125 346.976562 461.570312 348.605469 459.578125 348.605469 C 457.585938 348.605469 455.957031 346.976562 455.957031 344.984375 L 455.957031 84.523438 L 356.902344 84.523438 L 141.042969 425.558594 L 145.390625 486.246094 L 280.710938 486.246094 C 282.703125 486.246094 284.332031 487.875 284.332031 489.867188 C 284.332031 491.859375 282.703125 493.488281 280.710938 493.488281 Z M 359.621094 409.980469 L 234.007812 409.980469 L 346.105469 232.015625 L 359.621094 208.574219 Z M 247.160156 402.734375 L 352.375 402.734375 L 352.375 235.675781 L 352.375 235.75 C 352.375 235.75 247.160156 402.734375 247.160156 402.734375 Z M 247.160156 402.734375 "/><path style=" stroke:none;fill-rule:nonzero;fill:#ffffff;fill-opacity:1;" d="M 858.21875 579.320312 C 857.167969 579.320312 856.117188 578.847656 855.429688 577.980469 C 854.160156 576.421875 854.378906 574.136719 855.9375 572.871094 C 863.90625 566.347656 871.296875 558.777344 877.890625 550.335938 C 907.09375 512.945312 921.914062 457.984375 921.914062 386.972656 L 921.914062 346.25 C 921.914062 344.257812 923.542969 342.628906 925.535156 342.628906 C 927.527344 342.628906 929.15625 344.257812 929.15625 346.25 L 929.15625 386.972656 C 929.15625 459.613281 913.832031 516.097656 883.582031 554.792969 C 876.660156 563.667969 868.871094 571.640625 860.503906 578.484375 C 859.8125 579.03125 859.015625 579.320312 858.21875 579.320312 Z M 614.824219 551.710938 C 613.703125 551.710938 612.613281 551.203125 611.890625 550.226562 C 596.421875 529.140625 585.007812 503.089844 578.015625 472.804688 C 577.582031 470.847656 578.777344 468.890625 580.734375 468.457031 C 582.6875 468.019531 584.644531 469.214844 585.082031 471.171875 C 591.890625 500.519531 602.871094 525.664062 617.761719 545.953125 C 618.957031 547.582031 618.59375 549.828125 617 551.023438 C 616.347656 551.496094 615.585938 551.710938 614.863281 551.710938 Z M 614.824219 551.710938 "/><path style=" stroke:none;fill-rule:nonzero;fill:#ffffff;fill-opacity:1;" d="M 1364.679688 493.492188 L 1313.488281 493.492188 C 1311.496094 493.492188 1309.863281 491.859375 1309.863281 489.867188 C 1309.863281 487.875 1311.496094 486.246094 1313.488281 486.246094 L 1357.433594 486.246094 L 1357.433594 409.980469 L 1298.308594 409.980469 L 1298.308594 84.523438 L 1199.253906 84.523438 L 1100.199219 241.003906 C 1099.113281 242.703125 1096.902344 243.210938 1095.199219 242.125 C 1093.5 241.074219 1092.992188 238.828125 1094.078125 237.125 L 1195.269531 77.277344 L 1305.554688 77.277344 L 1305.554688 402.734375 L 1364.679688 402.734375 Z M 1049.839844 493.492188 L 981.003906 493.492188 L 976.003906 423.710938 L 1010.058594 369.910156 C 1011.109375 368.207031 1013.355469 367.699219 1015.058594 368.785156 C 1016.761719 369.835938 1017.269531 372.082031 1016.183594 373.785156 L 983.394531 425.59375 L 987.742188 486.28125 L 1049.839844 486.28125 C 1051.832031 486.28125 1053.464844 487.910156 1053.464844 489.902344 C 1053.464844 491.894531 1051.832031 493.527344 1049.839844 493.527344 Z M 1198.347656 372.445312 C 1196.355469 372.445312 1194.726562 370.816406 1194.726562 368.820312 L 1194.726562 235.675781 L 1194.726562 235.75 C 1194.726562 235.75 1146.320312 312.519531 1146.320312 312.519531 C 1145.269531 314.222656 1143.023438 314.730469 1141.320312 313.644531 C 1139.621094 312.59375 1139.113281 310.347656 1140.199219 308.644531 L 1188.492188 232.015625 L 1202.007812 208.574219 L 1202.007812 368.820312 C 1202.007812 370.816406 1200.378906 372.445312 1198.382812 372.445312 Z M 1198.347656 372.445312 "/><path style=" stroke:none;fill-rule:nonzero;fill:#ffffff;fill-opacity:1;" d="M 387.261719 1055.457031 C 385.742188 1055.457031 384.328125 1054.476562 383.820312 1052.957031 C 383.207031 1051.074219 384.21875 1049.007812 386.140625 1048.390625 C 398.929688 1044.1875 406.972656 1041.980469 407.082031 1041.941406 C 409 1041.398438 410.996094 1042.558594 411.539062 1044.480469 C 412.082031 1046.398438 410.921875 1048.390625 409 1048.933594 C 408.929688 1048.933594 401.03125 1051.144531 388.421875 1055.277344 C 388.058594 1055.382812 387.660156 1055.457031 387.300781 1055.457031 Z M 387.261719 1055.457031 "/><path style=" stroke:none;fill-rule:nonzero;fill:#ffffff;fill-opacity:1;" d="M 332.15625 1327.691406 C 330.347656 1327.691406 328.789062 1326.347656 328.570312 1324.5 C 328.351562 1322.507812 329.765625 1320.699219 331.757812 1320.480469 C 345.382812 1318.886719 359.4375 1315.445312 373.605469 1310.261719 C 375.488281 1309.574219 377.554688 1310.554688 378.242188 1312.4375 C 378.929688 1314.320312 377.953125 1316.386719 376.066406 1317.074219 C 361.394531 1322.4375 346.757812 1325.988281 332.59375 1327.652344 C 332.445312 1327.652344 332.300781 1327.652344 332.15625 1327.652344 Z M 288.355469 1326.496094 C 288.136719 1326.496094 287.921875 1326.496094 287.703125 1326.421875 C 272.8125 1323.632812 258.609375 1318.414062 245.496094 1310.808594 C 243.753906 1309.792969 243.175781 1307.582031 244.152344 1305.84375 C 245.167969 1304.105469 247.378906 1303.523438 249.117188 1304.503906 C 261.507812 1311.675781 274.949219 1316.640625 289.042969 1319.25 C 291 1319.609375 292.304688 1321.496094 291.941406 1323.488281 C 291.617188 1325.226562 290.09375 1326.457031 288.390625 1326.457031 Z M 414.507812 1298.453125 C 413.277344 1298.453125 412.042969 1297.800781 411.394531 1296.675781 C 410.378906 1294.9375 410.957031 1292.726562 412.695312 1291.714844 C 425.015625 1284.503906 436.972656 1276.132812 448.273438 1266.859375 C 449.832031 1265.589844 452.117188 1265.808594 453.382812 1267.367188 C 454.652344 1268.925781 454.433594 1271.207031 452.875 1272.476562 C 441.28125 1282.003906 429 1290.589844 416.355469 1297.980469 C 415.777344 1298.308594 415.160156 1298.488281 414.507812 1298.488281 Z M 213.214844 1283.777344 C 212.234375 1283.777344 211.257812 1283.378906 210.570312 1282.621094 C 209.554688 1281.53125 208.578125 1280.445312 207.5625 1279.324219 C 197.671875 1268.089844 190.136719 1256.714844 185.171875 1245.484375 C 184.375 1243.636719 185.171875 1241.5 187.019531 1240.703125 C 188.832031 1239.90625 191.003906 1240.703125 191.800781 1242.550781 C 196.476562 1253.09375 203.613281 1263.851562 212.996094 1274.503906 C 213.9375 1275.589844 214.917969 1276.640625 215.859375 1277.691406 C 217.234375 1279.179688 217.125 1281.460938 215.675781 1282.800781 C 214.988281 1283.453125 214.082031 1283.777344 213.214844 1283.777344 Z M 482.296875 1242.804688 C 481.425781 1242.804688 480.59375 1242.511719 479.902344 1241.898438 C 478.417969 1240.554688 478.273438 1238.273438 479.578125 1236.789062 C 487.546875 1227.765625 494.503906 1218.671875 500.300781 1209.578125 C 497.148438 1208.347656 494.179688 1207.007812 491.351562 1205.523438 C 489.578125 1204.617188 488.890625 1202.40625 489.792969 1200.628906 C 490.699219 1198.855469 492.910156 1198.167969 494.6875 1199.074219 C 497.621094 1200.59375 500.773438 1202.007812 504.140625 1203.277344 C 504.433594 1202.804688 504.683594 1202.296875 504.976562 1201.828125 C 505.953125 1200.085938 508.164062 1199.472656 509.902344 1200.449219 C 511.640625 1201.429688 512.257812 1203.636719 511.28125 1205.378906 C 511.242188 1205.449219 511.207031 1205.523438 511.132812 1205.59375 C 518.488281 1207.804688 526.675781 1209.433594 535.554688 1210.484375 C 537.546875 1210.703125 538.960938 1212.515625 538.742188 1214.507812 C 538.523438 1216.5 536.675781 1217.914062 534.71875 1217.695312 C 524.722656 1216.5 515.554688 1214.617188 507.332031 1212.007812 C 501.136719 1221.898438 493.671875 1231.789062 485.011719 1241.570312 C 484.289062 1242.367188 483.308594 1242.800781 482.296875 1242.800781 Z M 579.066406 1218.601562 C 577.183594 1218.601562 575.585938 1217.117188 575.441406 1215.195312 C 575.335938 1213.203125 576.855469 1211.464844 578.847656 1211.355469 L 581.277344 1211.210938 C 594.898438 1210.304688 608.8125 1209.21875 622.652344 1208.023438 C 624.644531 1207.804688 626.417969 1209.324219 626.5625 1211.320312 C 626.746094 1213.3125 625.257812 1215.085938 623.265625 1215.230469 C 609.390625 1216.425781 595.441406 1217.515625 581.78125 1218.417969 L 579.285156 1218.566406 C 579.285156 1218.566406 579.136719 1218.566406 579.066406 1218.566406 Z M 666.777344 1211.027344 C 664.96875 1211.027344 663.375 1209.652344 663.191406 1207.804688 C 662.976562 1205.8125 664.425781 1204.035156 666.417969 1203.820312 C 680.945312 1202.261719 695.617188 1200.558594 710.074219 1198.746094 C 712.066406 1198.492188 713.878906 1199.90625 714.132812 1201.898438 C 714.386719 1203.890625 712.972656 1205.703125 710.980469 1205.957031 C 696.488281 1207.804688 681.742188 1209.507812 667.175781 1211.066406 C 667.03125 1211.066406 666.925781 1211.066406 666.777344 1211.066406 Z M 182.128906 1204.726562 C 182.128906 1204.726562 181.765625 1204.726562 181.585938 1204.6875 C 179.59375 1204.398438 178.25 1202.550781 178.542969 1200.558594 C 180.644531 1186.609375 186.765625 1172.660156 196.730469 1159.109375 C 197.925781 1157.515625 200.171875 1157.15625 201.800781 1158.351562 C 203.394531 1159.546875 203.757812 1161.792969 202.5625 1163.421875 C 193.324219 1175.996094 187.636719 1188.855469 185.714844 1201.644531 C 185.460938 1203.457031 183.902344 1204.726562 182.128906 1204.726562 Z M 754.167969 1199.941406 C 752.390625 1199.941406 750.871094 1198.636719 750.578125 1196.863281 C 750.289062 1194.871094 751.667969 1193.058594 753.621094 1192.734375 C 768.222656 1190.558594 782.824219 1188.238281 797.027344 1185.847656 C 799.019531 1185.523438 800.867188 1186.828125 801.191406 1188.820312 C 801.519531 1190.777344 800.214844 1192.660156 798.222656 1192.984375 C 783.984375 1195.414062 769.308594 1197.734375 754.671875 1199.90625 C 754.492188 1199.90625 754.3125 1199.941406 754.128906 1199.941406 Z M 840.972656 1185.160156 C 839.269531 1185.160156 837.75 1183.964844 837.421875 1182.226562 C 837.023438 1180.269531 838.328125 1178.347656 840.285156 1177.988281 C 854.777344 1175.160156 869.269531 1172.152344 883.289062 1169.074219 C 885.246094 1168.640625 887.167969 1169.871094 887.601562 1171.828125 C 888.035156 1173.785156 886.804688 1175.703125 884.847656 1176.140625 C 870.753906 1179.253906 856.226562 1182.261719 841.660156 1185.089844 C 841.445312 1185.125 841.191406 1185.160156 840.972656 1185.160156 Z M 464.035156 1174.398438 C 462.511719 1174.398438 461.101562 1173.421875 460.59375 1171.902344 C 458.890625 1166.792969 458.019531 1161.429688 458.019531 1155.996094 C 458.019531 1145.34375 461.316406 1134.910156 467.257812 1126.648438 C 468.417969 1125.019531 470.703125 1124.65625 472.332031 1125.851562 C 473.960938 1127.011719 474.324219 1129.292969 473.128906 1130.925781 C 468.128906 1137.84375 465.230469 1147.011719 465.265625 1155.996094 C 465.265625 1160.667969 465.992188 1165.234375 467.441406 1169.617188 C 468.054688 1171.5 467.042969 1173.566406 465.15625 1174.183594 C 464.796875 1174.292969 464.398438 1174.363281 464.035156 1174.363281 Z M 926.910156 1166.105469 C 925.28125 1166.105469 923.832031 1165.015625 923.398438 1163.351562 C 922.925781 1161.394531 924.085938 1159.4375 926.042969 1158.964844 C 940.460938 1155.34375 954.738281 1151.539062 968.46875 1147.625 C 970.386719 1147.082031 972.378906 1148.207031 972.960938 1150.125 C 973.503906 1152.046875 972.378906 1154.039062 970.460938 1154.617188 C 956.65625 1158.53125 942.308594 1162.371094 927.816406 1166.03125 C 927.527344 1166.101562 927.238281 1166.140625 926.949219 1166.140625 Z M 522.765625 1166.03125 C 522.765625 1166.03125 522.511719 1166.03125 522.402344 1166.03125 C 520.410156 1165.8125 518.960938 1164.039062 519.140625 1162.082031 C 519.324219 1160.160156 519.429688 1158.277344 519.429688 1156.464844 C 519.429688 1148.929688 517.765625 1142.300781 514.539062 1136.757812 C 511.824219 1132.082031 508.816406 1128.316406 505.664062 1125.527344 C 504.179688 1124.183594 504.03125 1121.902344 505.335938 1120.417969 C 506.679688 1118.933594 508.960938 1118.785156 510.445312 1120.089844 C 514.175781 1123.386719 517.65625 1127.773438 520.773438 1133.097656 C 524.683594 1139.765625 526.675781 1147.625 526.675781 1156.464844 C 526.675781 1158.53125 526.566406 1160.667969 526.351562 1162.808594 C 526.167969 1164.691406 524.574219 1166.066406 522.765625 1166.066406 Z M 1011.582031 1141.9375 C 1010.058594 1141.9375 1008.648438 1140.960938 1008.140625 1139.4375 C 1007.523438 1137.519531 1008.574219 1135.488281 1010.457031 1134.875 C 1024.625 1130.273438 1038.574219 1125.453125 1051.90625 1120.527344 C 1053.789062 1119.835938 1055.855469 1120.78125 1056.542969 1122.664062 C 1057.230469 1124.546875 1056.289062 1126.613281 1054.40625 1127.300781 C 1040.964844 1132.265625 1026.941406 1137.121094 1012.667969 1141.722656 C 1012.304688 1141.828125 1011.90625 1141.902344 1011.546875 1141.902344 Z M 230.421875 1133.570312 C 229.371094 1133.570312 228.320312 1133.097656 227.597656 1132.226562 C 226.328125 1130.671875 226.582031 1128.386719 228.140625 1127.121094 C 238.683594 1118.570312 251.039062 1110.089844 264.804688 1101.867188 C 266.542969 1100.851562 268.753906 1101.398438 269.769531 1103.136719 C 270.785156 1104.839844 270.238281 1107.085938 268.5 1108.097656 C 255.023438 1116.140625 242.996094 1124.4375 232.707031 1132.734375 C 232.015625 1133.277344 231.21875 1133.53125 230.421875 1133.53125 Z M 1094.113281 1111.394531 C 1092.699219 1111.394531 1091.359375 1110.5625 1090.78125 1109.1875 C 1089.984375 1107.339844 1090.851562 1105.199219 1092.699219 1104.441406 C 1106.46875 1098.605469 1119.875 1092.519531 1132.554688 1086.289062 C 1134.367188 1085.417969 1136.539062 1086.144531 1137.410156 1087.957031 C 1138.277344 1089.765625 1137.554688 1091.941406 1135.742188 1092.808594 C 1122.917969 1099.078125 1109.402344 1105.273438 1095.527344 1111.140625 C 1095.054688 1111.324219 1094.585938 1111.433594 1094.113281 1111.433594 Z M 305.527344 1087.957031 C 304.1875 1087.957031 302.882812 1087.195312 302.265625 1085.890625 C 301.398438 1084.078125 302.160156 1081.90625 303.96875 1081.070312 C 316.722656 1074.984375 330.382812 1069.042969 344.585938 1063.425781 C 346.46875 1062.667969 348.570312 1063.609375 349.292969 1065.457031 C 350.019531 1067.304688 349.113281 1069.40625 347.265625 1070.167969 C 333.207031 1075.710938 319.695312 1081.578125 307.085938 1087.59375 C 306.578125 1087.847656 306.035156 1087.957031 305.527344 1087.957031 Z M 1173.058594 1072.519531 C 1171.792969 1072.519531 1170.597656 1071.867188 1169.90625 1070.710938 C 1168.894531 1068.96875 1169.507812 1066.761719 1171.246094 1065.746094 C 1184.253906 1058.28125 1196.71875 1050.457031 1208.273438 1042.523438 C 1209.941406 1041.398438 1212.1875 1041.796875 1213.3125 1043.464844 C 1214.433594 1045.132812 1214.035156 1047.378906 1212.371094 1048.5 C 1200.628906 1056.542969 1188.023438 1064.476562 1174.871094 1072.015625 C 1174.292969 1072.339844 1173.675781 1072.484375 1173.058594 1072.484375 Z M 1173.058594 1072.519531 "/><path style=" stroke:none;fill-rule:nonzero;fill:#ffffff;fill-opacity:1;" d="M 1245.410156 1022.523438 C 1244.359375 1022.523438 1243.347656 1022.089844 1242.621094 1021.21875 C 1241.355469 1019.699219 1241.535156 1017.414062 1243.054688 1016.109375 C 1248.636719 1011.4375 1254.035156 1006.65625 1259.179688 1001.835938 C 1260.628906 1000.460938 1262.945312 1000.53125 1264.289062 1002.015625 C 1265.664062 1003.464844 1265.589844 1005.785156 1264.105469 1007.125 C 1258.890625 1012.015625 1253.382812 1016.90625 1247.695312 1021.652344 C 1247.003906 1022.234375 1246.171875 1022.488281 1245.375 1022.488281 Z M 1245.410156 1022.523438 "/><path style=" stroke:none;fill-rule:nonzero;fill:#ffffff;fill-opacity:1;" d="M 1344.136719 941.585938 C 1344.136719 941.585938 1257.292969 884.558594 1249.179688 913.324219 C 1241.0625 942.054688 1312.90625 958.9375 1312.90625 958.9375 C 1312.90625 958.9375 1242.949219 952.054688 1255.445312 970.824219 C 1267.945312 989.554688 1334.792969 982.707031 1351.023438 971.4375 C 1367.253906 960.207031 1344.136719 941.621094 1344.136719 941.621094 Z M 1344.136719 941.585938 "/><path style=" stroke:none;fill-rule:nonzero;fill:#ffffff;fill-opacity:1;" d="M 1332.582031 996.617188 C 1313.199219 996.617188 1297.402344 985.242188 1297.402344 971.292969 C 1297.402344 957.34375 1313.160156 945.96875 1332.582031 945.96875 C 1352 945.96875 1367.761719 957.34375 1367.761719 971.292969 C 1367.761719 985.242188 1352 996.617188 1332.582031 996.617188 Z M 1332.582031 953.214844 C 1317.4375 953.214844 1304.648438 961.511719 1304.648438 971.292969 C 1304.648438 981.074219 1317.4375 989.371094 1332.582031 989.371094 C 1347.726562 989.371094 1360.515625 981.074219 1360.515625 971.292969 C 1360.515625 961.511719 1347.726562 953.214844 1332.582031 953.214844 Z M 1332.582031 953.214844 "/></g></svg>